<?xml version="1.0" encoding="utf-8"?>
<!-- Generator: Adobe Illustrator 24.3.0, SVG Export Plug-In . SVG Version: 6.00 Build 0)  -->
<svg version="1.1" id="Capa_1" xmlns="http://www.w3.org/2000/svg" xmlns:xlink="http://www.w3.org/1999/xlink" x="0px" y="0px"
	 viewBox="0 0 26 32.5" style="enable-background:new 0 0 26 32.5;" xml:space="preserve">
<style type="text/css">
	.st0{fill:#FCFCFC;}
</style>
<g>
	<g>
		<path class="st0" d="M13,3.2C6.1,3.2,0.5,8.9,0.5,15.8S6.1,28.3,13,28.3s12.5-5.6,12.5-12.5S19.9,3.2,13,3.2z M13,26.3
			c-2.5,0-4.8-0.8-6.7-2.4c0-3.7,3-6.7,6.7-6.7s6.7,3,6.7,6.7C17.8,25.5,15.5,26.4,13,26.3z M21.4,22.2c-1.2-4.6-5.9-7.5-10.5-6.3
			c-3.1,0.8-5.5,3.2-6.3,6.3c-1.4-1.8-2.2-4.1-2.2-6.4C2.4,9.9,7.2,5.2,13,5.2s10.6,4.7,10.6,10.6C23.6,18.1,22.8,20.3,21.4,22.2z
			 M13,6.3c-2.2,0-4,1.8-4,4s1.8,4,4,4s4-1.8,4-4S15.2,6.3,13,6.3L13,6.3z M13,12.5c-1.2,0-2.1-0.9-2.1-2.1c0-1.2,0.9-2.1,2.1-2.1
			s2.1,0.9,2.1,2.1v0C15.1,11.5,14.2,12.5,13,12.5z"/>
	</g>
</g>
</svg>
