<?xml version="1.0" encoding="utf-8"?>
<!-- Generator: Adobe Illustrator 25.1.0, SVG Export Plug-In . SVG Version: 6.00 Build 0)  -->
<svg version="1.1" id="Capa_1" xmlns="http://www.w3.org/2000/svg" xmlns:xlink="http://www.w3.org/1999/xlink" x="0px" y="0px"
	 viewBox="0 0 1280 70" style="enable-background:new 0 0 1280 70;" xml:space="preserve">
<style type="text/css">
	.st0{fill:#FDFDFD;}
</style>
<g>
	<g>
		<g>
			<g>
				<path class="st0" d="M710.88,67.59c-14.66-0.97-21.99-3.48-21.99-7.53c0-1.23,1.47-2.35,4.4-3.37c2.75-0.88,5.48-1.77,8.21-2.67
					c2.95-1.2,4.43-2.63,4.43-4.27c0-1.27-1.48-2.29-4.43-3.05c-2.49-0.67-5.32-1.02-8.48-1.04c-10.09-0.12-15.14,0.89-15.14,3.02
					c0,0.58,0.87,1.19,2.6,1.84c1.73,0.65,2.6,1.25,2.6,1.8c0,0.83-2.23,1.25-6.68,1.25c-1.15,0-3.14-0.05-5.96-0.14
					c-2.59-0.07-4.46-0.09-5.61-0.07c-13.25,0.19-19.88,1.69-19.88,4.51c0,0.95,1.2,1.93,3.6,2.95c2.4,1.02,3.6,2.06,3.6,3.12
					c0,1.25-1.76,2.22-5.26,2.92c-2.19,0.42-4.5,0.66-6.93,0.73V34.55c7.99-1.25,14.27-1.88,18.84-1.88c1.89,0,3.44,0.05,4.64,0.14
					l-3.08,5.45l2.04,0.97l3.53-6.07c1.41,0.21,2.93,0.31,4.57,0.31c2.03,0,5.39-0.27,10.08-0.8c4.57-0.51,8.23-0.75,10.98-0.73
					c4.59,0.05,11.04,0.91,19.33,2.6V67.59z M701.22,49.89c0,1.3-1.72,2.52-5.16,3.68c-3.19,0.93-6.37,1.86-9.56,2.81
					c-3.46,1.13-5.21,2.32-5.23,3.57c-0.09,3.24,6.28,5.78,19.12,7.64h-12.47c-2.1-0.6-3.9-1.22-5.4-1.84
					c-3.6-1.48-5.43-2.93-5.47-4.34c0-0.09,0.01-0.25,0.03-0.47c0.02-0.22,0.03-0.4,0.03-0.54c0-1.78-2.32-2.71-6.96-2.78
					c-2.38-0.02-4.57,0.1-6.58,0.38c-2.31,0.32-3.46,0.76-3.46,1.32c0,0.81,1.55,1.6,4.66,2.38c3.11,0.77,4.66,1.56,4.66,2.34
					c0,2.17-2.67,3.35-8,3.54h-10.39c7.09-0.74,10.63-1.92,10.63-3.54c0-0.86-1.73-1.75-5.19-2.67c-3.46-0.93-5.19-1.77-5.19-2.53
					c0-1.04,1.59-1.76,4.78-2.15c2.17-0.25,6.16-0.42,11.98-0.49c3.97-0.07,8.04-0.34,12.19-0.8c5.52-0.62,8.28-1.41,8.28-2.36
					c0-0.88-0.82-1.63-2.48-2.26c-1.65-0.63-2.48-1.05-2.48-1.29c0-1.39,3.27-2.02,9.8-1.91C698.6,47.67,701.22,48.43,701.22,49.89z
					 M674.1,47.11l-8.03-1.14l1.97-2.78l-6.23,1.98l-7.79-1.87l5.4,2.88l-5.65,2.19l8.62-0.66l3.67,4.03l-0.1-4.03L674.1,47.11z
					 M693.36,22.36l-4.61,1.94l-12.19-2.29l-14.27-7.15l-3.74-8.23l22.58-0.73l1.35,0.59L693.36,22.36z M672.92,20.45l-10.63,18.29
					l-1.35-0.63l10.53-18.4L672.92,20.45z"/>
				<path class="st0" d="M781.81,67.59h-70.93V34.55h4.81V24.13h10.01v5.2h1.56V11.53h6.16v14.82h1.42V1.71h14.2v21.94h4.05v-8.19
					h4.36V8.3h7.72v21.87h2.84v-6.53h8.8v10.9h4.99V67.59z M718.67,29.55v-4.17h-1.66v4.17H718.67z M721.55,29.55v-4.17h-1.66v4.17
					H721.55z M724.98,36.73v-4.16h-1.66v4.16H724.98z M724.98,41.8v-4.17h-1.66v4.17H724.98z M727.33,36.73v-4.16h-1.66v4.16H727.33
					z M729.58,16.56v-4.13h-1.66v4.13H729.58z M729.58,22.29v-4.17h-1.66v4.17H729.58z M732.74,16.56v-4.13h-1.66v4.13H732.74z
					 M738.28,7.54V3.37h-1.66v4.17H738.28z M738.28,13.23V9.07h-1.66v4.17H738.28z M738.28,18.82v-4.17h-1.66v4.17H738.28z
					 M739.94,31.8v-4.17h-1.66v4.17H739.94z M739.94,37.5v-4.17h-1.66v4.17H739.94z M741.43,7.54V3.37h-1.66v4.17H741.43z
					 M741.43,13.23V9.07h-1.66v4.17H741.43z M743.09,31.8v-4.17h-1.66v4.17H743.09z M744.51,7.54V3.37h-1.66v4.17H744.51z
					 M747.42,47.08v-4.17h-1.66v4.17H747.42z M747.42,52.11v-4.17h-1.66v4.17H747.42z M749.81,47.08v-4.17h-1.66v4.17H749.81z
					 M760.03,13.3V9.14h-1.66v4.16H760.03z M760.03,18.37V14.2h-1.66v4.17H760.03z M762.38,13.3V9.14h-1.66v4.16H762.38z
					 M764.6,41.21v-4.17h-1.66v4.17H764.6z M764.6,46.28v-4.16h-1.66v4.16H764.6z M766.99,41.21v-4.17h-1.66v4.17H766.99z
					 M770.8,28.68v-4.17h-1.66v4.17H770.8z M770.8,33.75v-4.16h-1.66v4.16H770.8z M773.15,28.68v-4.17h-1.66v4.17H773.15z"/>
				<path class="st0" d="M852.74,67.59h-70.93V34.55h13.85l0.24-12.08h-1v-4.72h44.74v4.72h-1l0.24,12.08h13.85V67.59z
					 M847.54,55.96v-2.08h-2.29V51.8h-2.28v-2.08h-51.4v2.08h-2.28v2.08h-2.29v2.08H847.54z M842.87,16.81h-51.19l25.59-8.5
					L842.87,16.81z M838.71,21.53v-2.85h-42.88v2.85H838.71z M799.89,48.78l-0.52-26.31h-2.53l-0.52,26.31H799.89z M837.4,15.87
					l-20.12-6.63l-20.12,6.63H837.4z M812.67,48.78l-0.52-26.31h-2.53l-0.52,26.31H812.67z M825.45,48.78l-0.52-26.31h-2.53
					l-0.52,26.31H825.45z M838.23,48.78l-0.52-26.31h-2.53l-0.52,26.31H838.23z"/>
				<path class="st0" d="M923.66,67.59h-70.93V34.51h6.1V10.59l13.54,8.47v-8.47l13.47,8.47v-8.47l13.13,8.47l5.92-15.72h12.23
					v31.17h6.54V67.59z M915.7,46.45V4.52h-9.42l-6.48,17.39l-12.4-8.33v8.33l-13.47-8.33v8.33l-13.64-8.33v32.87H915.7z
					 M878.68,38.75h-12.33V27.22h12.33V38.75z M894.09,38.75h-12.33V27.22h12.33V38.75z M909.54,38.75h-12.33V27.22h12.33V38.75z"/>
				<path class="st0" d="M964.7,51.69c0,3.8-5.38,7.58-16.14,11.35c-4.5,1.57-9.9,3.09-16.17,4.55h-8.73V34.55h20.02
					c-9.7,0.83-14.55,2.56-14.55,5.17c0,2.34,3.07,3.95,9.21,4.83c5.73,0.62,11.44,1.26,17.14,1.91
					C961.64,47.42,964.7,49.17,964.7,51.69z M994.59,67.59h-19.5c8.4-4.98,12.61-10.28,12.61-15.9c0-3.45-4.25-5.92-12.74-7.43
					c-3.6-0.63-11.5-1.35-23.69-2.19c-8.5-0.58-12.74-1.48-12.74-2.71c0-1.99,4.85-3.6,14.55-4.82h13.92v-5.55h-15.83l13.89-10.17
					h-8.73l10.67-10.27h-5.51l8.76-7.08l8.73,7.08h-5.51l10.67,10.27h-8.73l13.92,10.17h-15.86v5.55h21.13V67.59z"/>
				<path class="st0" d="M1065.52,67.59h-70.93V34.55c2.19,0,3.94-0.53,5.23-1.6c0.6-0.49,1.35-1.45,2.25-2.88
					c0.67-1.04,1.34-1.56,2.01-1.56c0.67,0,1.63,0.19,2.87,0.56c1.25,0.37,2.53,0.56,3.85,0.56c1.43,0,3.44-1.71,6.03-5.14
					c2.26-3.19,4.51-6.37,6.75-9.55c2.56-3.45,4.49-5.17,5.78-5.17c0.6,0,1.5,0.41,2.68,1.22c1.19,0.81,2.13,1.24,2.82,1.28
					c0.95,0.09,2.4-0.05,4.36-0.42c2.08-0.37,3.23-0.56,3.46-0.56c1.62,0,4.01,2,7.17,6.01c2.79,3.73,5.59,7.46,8.38,11.21
					c3.21,4.03,5.63,6.04,7.27,6.04V67.59z M1010.87,30.24c-1.39,0-2.6-0.17-3.64-0.52c-1.27-0.42-2.31-0.63-3.12-0.63
					c-0.12,1.13,0.47,1.78,1.77,1.94C1007.01,31.18,1008.67,30.91,1010.87,30.24z M1055.44,25.73c-0.99-1.27-2.57-3.35-4.74-6.25
					c-1.76-2.48-3.68-4.6-5.78-6.39c-0.02,0.37-0.14,0.69-0.35,0.97c-0.49,0.69-1.34,1.11-2.56,1.25c-0.34,0.02-0.68,0.04-1,0.04
					c-0.69,0-1.51-0.13-2.46-0.4c-0.94-0.27-1.77-0.4-2.46-0.4c-0.81,0-1.78,0.11-2.91,0.33c-1.13,0.22-1.99,0.33-2.56,0.33
					c-0.46,0-0.94-0.04-1.42-0.1c-1.04-0.19-1.56-0.84-1.56-1.98c0-0.62,0.16-1.32,0.48-2.08c-0.48,0.35-0.99,0.8-1.52,1.35
					c-1.27,1.32-2.59,3.04-3.95,5.17c-1.5,2.34-3.71,5.44-6.61,9.3c2.59-2.71,4.9-4.05,6.96-4.03c1.29,0.02,2.31,0.73,3.05,2.12
					c0.49,1.3,0.96,2.59,1.42,3.89c0.55,1.39,1.25,2.09,2.08,2.12c1.48,0.05,2.36-0.66,2.67-2.12c0.25-1.36,0.51-2.73,0.76-4.1
					c0.67-1.48,2.2-2.22,4.57-2.22c0.92,0,2.35,0.6,4.28,1.8c1.93,1.21,3.31,1.8,4.14,1.77c0.49-0.02,0.73-0.31,0.73-0.87
					c0-0.28-0.09-0.81-0.28-1.6c-0.19-0.79-0.28-1.34-0.28-1.67c0-0.81,0.39-1.21,1.18-1.21c0.85,0,2.03,1.3,3.51,3.91
					c1.49,2.6,2.72,3.9,3.69,3.9c0.79,0,1.18-0.49,1.18-1.46C1055.68,26.7,1055.6,26.24,1055.44,25.73z M1038.51,12.47
					c-2.06,0.39-3.67,0.39-4.85,0c-0.51-0.16-1.17-0.54-1.98-1.15c-0.71-0.53-1.2-0.8-1.45-0.8c-0.81,0-1.21,0.35-1.21,1.04
					c0,0.65,0.25,1.2,0.76,1.67c0.42,0.37,1.13,0.56,2.15,0.56C1033.59,13.79,1035.78,13.35,1038.51,12.47z"/>
				<path class="st0" d="M1136.45,67.59h-70.93V34.55h13.4l8.31-17.36l7.86,17.36h13.75v-5.55h-15.83l13.89-10.17h-8.73l10.67-10.27
					h-5.51l8.76-7.08l8.73,7.08h-5.51l10.67,10.27h-8.73l13.92,10.17h-15.86v5.55h21.13V67.59z M1102.61,53.36l-15.38-34.75
					l-16.28,34.75h10.32V43.22c0-1.48,0.44-2.84,1.32-4.09c1.09-1.6,2.63-2.4,4.64-2.4c1.99,0,3.53,0.8,4.64,2.4
					c0.86,1.25,1.28,2.61,1.28,4.09v10.14H1102.61z"/>
				<path class="st0" d="M1207.38,67.59h-70.93V34.55c0.76-0.02,1.52-0.09,2.29-0.21c1.82-0.28,3.53-0.75,5.13-1.42
					c1.73-0.74,3.48-2.03,5.26-3.85l7.79,1.77c1.52,0.67,3.18,1.91,4.95,3.71c1.2-0.02,2.34-0.09,3.43-0.21
					c2.59-0.28,4.68-0.75,6.27-1.42c1.75-0.74,3.51-2.03,5.26-3.85l7.79,1.77c1.55,0.67,3.2,1.91,4.95,3.71V25.7h-6.82
					c-0.76,0-1.56-0.4-2.39-1.22c-0.83-0.81-1.25-1.68-1.25-2.6V10.8c0-1.9,0.73-2.85,2.18-2.85c1.5,0,2.25,0.95,2.25,2.85v8.85
					c0,1.48,0.94,2.22,2.81,2.22h3.22V4.42c0-1.92,0.74-2.88,2.22-2.88c1.45,0,2.18,0.96,2.18,2.88v21.76h1.49
					c1.43,0,2.15-0.74,2.15-2.22v-5.28c0-1.92,0.74-2.88,2.22-2.88c1.46,0,2.18,0.96,2.18,2.88v7.5c0,0.93-0.42,1.79-1.25,2.6
					c-0.83,0.81-1.63,1.22-2.39,1.22h-4.4v4.55h13.4V67.59z M1165.16,13.44c0,2.89-1.06,5.36-3.17,7.41
					c-2.11,2.05-4.66,3.07-7.64,3.07c-2.98,0-5.53-1.02-7.64-3.07c-2.11-2.05-3.17-4.52-3.17-7.41c0-2.89,1.06-5.36,3.17-7.39
					c2.11-2.04,4.66-3.05,7.64-3.05c2.98,0,5.52,1.02,7.64,3.05C1164.1,8.08,1165.16,10.55,1165.16,13.44z M1151.1,35.55
					c0.05-0.25,0.07-0.51,0.07-0.76c0-1.41-0.53-2.77-1.59-4.06c0.28,0.9,0.42,1.82,0.42,2.74c0,0.83-0.14,1.56-0.42,2.19
					c-0.83,1.78-2.67,3.03-5.51,3.75c1.27-0.12,2.37-0.32,3.29-0.63C1149.6,38.09,1150.84,37.01,1151.1,35.55z M1178.8,35.55
					c0.05-0.25,0.07-0.51,0.07-0.76c0-1.41-0.53-2.77-1.59-4.06c0.28,0.9,0.42,1.82,0.42,2.74c0,0.83-0.14,1.56-0.42,2.19
					c-0.81,1.78-2.63,3.03-5.47,3.75c1.25-0.12,2.34-0.32,3.29-0.63C1177.34,38.09,1178.57,37.01,1178.8,35.55z"/>
				<path class="st0" d="M1278.3,67.59h-70.93V34.55h14.61c5.73-1.6,12.66-2.4,20.81-2.4c1.5,0,2.97,0.02,4.4,0.07
					c-0.67-7.27-1.9-13.7-3.71-19.3c-1.59,0.32-3.07,1.11-4.43,2.36c-2.21,2.08-3.66,5.19-4.33,9.34c-0.72-2.5-1.07-4.81-1.07-6.94
					c0-2.68,0.63-4.56,1.91-5.62c0.95-0.79,2.49-1.46,4.64-2.01c-0.85-0.07-1.81-0.12-2.88-0.14c-1.71-0.02-4.16,0.3-7.34,0.97
					c2.72-3.59,5.17-5.38,7.34-5.38c1.2,0,2.8,0.51,4.78,1.53c-0.21-0.79-0.52-1.7-0.93-2.74c-0.21-0.56-0.69-1.39-1.46-2.5
					c1.76-0.46,3.12-0.67,4.09-0.63c0.97,0.05,2.3,0.3,3.98,0.76c-0.46,0.37-1.07,1.08-1.84,2.12c-0.14,0.35-0.22,0.87-0.24,1.56
					c1.96-1.92,3.91-2.8,5.85-2.64c2.4,0.21,4.63,2.63,6.68,7.26c-2.79-2.5-5.02-3.68-6.68-3.54c-1.11,0.09-2.42,0.89-3.95,2.39
					c6.79-0.16,10.22,2.31,10.29,7.43c0.05,2.04-0.95,4.72-2.98,8.05c-0.09-1.78-0.29-3.34-0.59-4.69c-0.67-3.08-1.87-5.19-3.6-6.35
					c-0.85-0.58-2.32-0.95-4.4-1.11c0.53,1.39,1.04,2.87,1.52,4.44l-2.15,0.38l0.07,0.56l2.25-0.45c0.42,1.32,0.8,2.64,1.14,3.96
					l-2.22,0.31l-0.03,0.59l2.39-0.21c0.35,1.32,0.67,2.64,0.97,3.96l-2.29,0.31l-0.03,0.59l2.39-0.17
					c0.21,1.02,0.49,2.43,0.83,4.24l-2.63,0.14l-0.03,0.59l2.77-0.04l0.14,0.87c1.08,0.09,2.15,0.2,3.19,0.31l1.7-1.49l-0.76,1.63
					c3.3,0.44,6.01,0.98,8.14,1.63h14.61V67.59z M1271.62,40.9c0-1.64-1.51-3.15-4.54-4.51c-2.93-1.34-6.85-2.36-11.74-3.05l-1,2.12
					l2.7-0.9l-2.36,2.33c-1.04,0.69-2.67,1-4.88,0.9c-1.59-0.05-2.93-0.43-4.02-1.15l-1.32-3.44l3.01,2.25
					c-0.09-1.18-0.17-2.13-0.24-2.84c-1.46-0.07-2.93-0.1-4.43-0.1c-7.96,0-14.77,0.82-20.4,2.46c-5.63,1.64-8.45,3.62-8.45,5.94
					c0,2.31,2.82,4.29,8.45,5.92c5.63,1.63,12.43,2.45,20.4,2.45c7.94,0,14.73-0.82,20.36-2.45
					C1268.8,45.18,1271.62,43.21,1271.62,40.9z M1254.2,33.19c-0.9-0.12-1.81-0.21-2.73-0.28l0.1,0.8c0.07,0.46,0.13,1.02,0.17,1.67
					L1254.2,33.19z"/>
			</g>
		</g>
	</g>
	<g>
		<g>
			<g>
				<path class="st0" d="M72.54,67.37c-14.66-0.97-21.99-3.48-21.99-7.53c0-1.23,1.47-2.35,4.4-3.37c2.75-0.88,5.48-1.77,8.21-2.67
					c2.95-1.2,4.43-2.63,4.43-4.27c0-1.27-1.48-2.29-4.43-3.05c-2.49-0.67-5.32-1.02-8.48-1.04c-10.09-0.12-15.14,0.89-15.14,3.02
					c0,0.58,0.87,1.19,2.6,1.84c1.73,0.65,2.6,1.25,2.6,1.8c0,0.83-2.23,1.25-6.68,1.25c-1.15,0-3.14-0.05-5.96-0.14
					c-2.59-0.07-4.46-0.09-5.61-0.07C13.22,53.32,6.6,54.83,6.6,57.65c0,0.95,1.2,1.93,3.6,2.95c2.4,1.02,3.6,2.06,3.6,3.12
					c0,1.25-1.76,2.22-5.26,2.92c-2.19,0.42-4.5,0.66-6.93,0.73V34.32c7.99-1.25,14.27-1.88,18.84-1.88c1.89,0,3.44,0.05,4.64,0.14
					l-3.08,5.45l2.04,0.97l3.53-6.07c1.41,0.21,2.93,0.31,4.57,0.31c2.03,0,5.39-0.27,10.08-0.8c4.57-0.51,8.23-0.75,10.98-0.73
					c4.59,0.05,11.04,0.91,19.33,2.6V67.37z M62.87,49.67c0,1.3-1.72,2.52-5.16,3.68c-3.19,0.93-6.37,1.86-9.56,2.81
					c-3.46,1.13-5.21,2.32-5.23,3.57c-0.09,3.24,6.28,5.78,19.12,7.64H49.57c-2.1-0.6-3.9-1.22-5.4-1.84
					c-3.6-1.48-5.43-2.93-5.47-4.34c0-0.09,0.01-0.25,0.03-0.47c0.02-0.22,0.03-0.4,0.03-0.54c0-1.78-2.32-2.71-6.96-2.78
					c-2.38-0.02-4.57,0.1-6.58,0.38c-2.31,0.32-3.46,0.76-3.46,1.32c0,0.81,1.55,1.6,4.66,2.38c3.11,0.77,4.66,1.56,4.66,2.34
					c0,2.17-2.67,3.35-8,3.54H12.69c7.09-0.74,10.63-1.92,10.63-3.54c0-0.86-1.73-1.75-5.19-2.67c-3.46-0.93-5.19-1.77-5.19-2.53
					c0-1.04,1.59-1.76,4.78-2.15c2.17-0.25,6.16-0.42,11.98-0.49c3.97-0.07,8.04-0.34,12.19-0.8c5.52-0.62,8.28-1.41,8.28-2.36
					c0-0.88-0.82-1.63-2.48-2.26c-1.65-0.63-2.48-1.05-2.48-1.29c0-1.39,3.27-2.02,9.8-1.91C60.25,47.44,62.87,48.21,62.87,49.67z
					 M35.76,46.89l-8.03-1.14l1.97-2.78l-6.23,1.98l-7.79-1.87l5.4,2.88l-5.65,2.19l8.62-0.66l3.67,4.03l-0.1-4.03L35.76,46.89z
					 M55.01,22.14l-4.61,1.94l-12.19-2.29l-14.27-7.15l-3.74-8.23l22.58-0.73l1.35,0.59L55.01,22.14z M34.58,20.23L23.95,38.53
					L22.6,37.9l10.53-18.4L34.58,20.23z"/>
				<path class="st0" d="M143.46,67.37H72.54V34.32h4.81V23.91h10.01v5.2h1.56V11.31h6.16v14.82h1.42V1.49h14.2v21.94h4.05v-8.19
					h4.36V8.08h7.72v21.87h2.84v-6.53h8.8v10.9h4.99V67.37z M80.33,29.33v-4.17h-1.66v4.17H80.33z M83.2,29.33v-4.17h-1.66v4.17
					H83.2z M86.63,36.51v-4.16h-1.66v4.16H86.63z M86.63,41.58v-4.17h-1.66v4.17H86.63z M88.99,36.51v-4.16h-1.66v4.16H88.99z
					 M91.24,16.34v-4.13h-1.66v4.13H91.24z M91.24,22.07v-4.17h-1.66v4.17H91.24z M94.39,16.34v-4.13h-1.66v4.13H94.39z M99.93,7.32
					V3.15h-1.66v4.17H99.93z M99.93,13.01V8.85h-1.66v4.17H99.93z M99.93,18.6v-4.17h-1.66v4.17H99.93z M101.59,31.58v-4.17h-1.66
					v4.17H101.59z M101.59,37.27v-4.17h-1.66v4.17H101.59z M103.08,7.32V3.15h-1.66v4.17H103.08z M103.08,13.01V8.85h-1.66v4.17
					H103.08z M104.74,31.58v-4.17h-1.66v4.17H104.74z M106.16,7.32V3.15h-1.66v4.17H106.16z M109.07,46.86v-4.17h-1.66v4.17H109.07z
					 M109.07,51.89v-4.17h-1.66v4.17H109.07z M111.46,46.86v-4.17h-1.66v4.17H111.46z M121.68,13.08V8.92h-1.66v4.16H121.68z
					 M121.68,18.15v-4.17h-1.66v4.17H121.68z M124.04,13.08V8.92h-1.66v4.16H124.04z M126.25,40.99v-4.17h-1.66v4.17H126.25z
					 M126.25,46.06v-4.16h-1.66v4.16H126.25z M128.64,40.99v-4.17h-1.66v4.17H128.64z M132.45,28.46v-4.17h-1.66v4.17H132.45z
					 M132.45,33.53v-4.16h-1.66v4.16H132.45z M134.81,28.46v-4.17h-1.66v4.17H134.81z"/>
				<path class="st0" d="M214.39,67.37h-70.93V34.32h13.85l0.24-12.08h-1v-4.72h44.74v4.72h-1l0.24,12.08h13.85V67.37z M209.2,55.74
					v-2.08h-2.29v-2.08h-2.28v-2.08h-51.4v2.08h-2.28v2.08h-2.29v2.08H209.2z M204.52,16.59h-51.19l25.59-8.5L204.52,16.59z
					 M200.37,21.31v-2.85h-42.88v2.85H200.37z M161.54,48.55l-0.52-26.31h-2.53l-0.52,26.31H161.54z M199.05,15.65l-20.12-6.63
					l-20.12,6.63H199.05z M174.32,48.55l-0.52-26.31h-2.53l-0.52,26.31H174.32z M187.1,48.55l-0.52-26.31h-2.53l-0.52,26.31H187.1z
					 M199.88,48.55l-0.52-26.31h-2.53l-0.52,26.31H199.88z"/>
				<path class="st0" d="M285.32,67.37h-70.93V34.29h6.1V10.37l13.54,8.47v-8.47l13.47,8.47v-8.47l13.13,8.47l5.92-15.72h12.23
					v31.17h6.54V67.37z M277.35,46.23V4.3h-9.42l-6.48,17.39l-12.4-8.33v8.33l-13.47-8.33v8.33l-13.64-8.33v32.87H277.35z
					 M240.33,38.53H228V27h12.33V38.53z M255.74,38.53h-12.33V27h12.33V38.53z M271.19,38.53h-12.33V27h12.33V38.53z"/>
				<path class="st0" d="M326.36,51.47c0,3.8-5.38,7.58-16.14,11.35c-4.5,1.57-9.9,3.09-16.17,4.55h-8.73V34.32h20.02
					c-9.7,0.83-14.55,2.56-14.55,5.17c0,2.34,3.07,3.95,9.21,4.83c5.73,0.62,11.44,1.26,17.14,1.91
					C323.29,47.2,326.36,48.95,326.36,51.47z M356.25,67.37h-19.5c8.4-4.98,12.61-10.28,12.61-15.9c0-3.45-4.25-5.92-12.74-7.43
					c-3.6-0.63-11.5-1.35-23.69-2.19c-8.5-0.58-12.74-1.48-12.74-2.71c0-1.99,4.85-3.6,14.55-4.82h13.92v-5.55h-15.83l13.89-10.17
					h-8.73l10.67-10.27h-5.51l8.76-7.08l8.73,7.08h-5.51l10.67,10.27h-8.73l13.92,10.17h-15.86v5.55h21.13V67.37z"/>
				<path class="st0" d="M427.17,67.37h-70.93V34.32c2.19,0,3.94-0.53,5.23-1.6c0.6-0.49,1.35-1.45,2.25-2.88
					c0.67-1.04,1.34-1.56,2.01-1.56c0.67,0,1.63,0.19,2.87,0.56c1.25,0.37,2.53,0.56,3.85,0.56c1.43,0,3.44-1.71,6.03-5.14
					c2.26-3.19,4.51-6.37,6.75-9.55c2.56-3.45,4.49-5.17,5.78-5.17c0.6,0,1.5,0.41,2.68,1.22c1.19,0.81,2.13,1.24,2.82,1.28
					c0.95,0.09,2.4-0.05,4.36-0.42c2.08-0.37,3.23-0.56,3.46-0.56c1.62,0,4.01,2,7.17,6.01c2.79,3.73,5.59,7.46,8.38,11.21
					c3.21,4.03,5.63,6.04,7.27,6.04V67.37z M372.52,30.02c-1.39,0-2.6-0.17-3.64-0.52c-1.27-0.42-2.31-0.63-3.12-0.63
					c-0.12,1.13,0.47,1.78,1.77,1.94C368.67,30.96,370.33,30.69,372.52,30.02z M417.1,25.51c-0.99-1.27-2.57-3.35-4.74-6.25
					c-1.76-2.48-3.68-4.6-5.78-6.39c-0.02,0.37-0.14,0.69-0.35,0.97c-0.49,0.69-1.34,1.11-2.56,1.25c-0.34,0.02-0.68,0.04-1,0.04
					c-0.69,0-1.51-0.13-2.46-0.4c-0.94-0.27-1.77-0.4-2.46-0.4c-0.81,0-1.78,0.11-2.91,0.33c-1.13,0.22-1.99,0.33-2.56,0.33
					c-0.46,0-0.94-0.04-1.42-0.1c-1.04-0.19-1.56-0.84-1.56-1.98c0-0.62,0.16-1.32,0.48-2.08c-0.48,0.35-0.99,0.8-1.52,1.35
					c-1.27,1.32-2.59,3.04-3.95,5.17c-1.5,2.34-3.71,5.44-6.61,9.3c2.59-2.71,4.9-4.05,6.96-4.03c1.29,0.02,2.31,0.73,3.05,2.12
					c0.49,1.3,0.96,2.59,1.42,3.89c0.55,1.39,1.25,2.09,2.08,2.12c1.48,0.05,2.36-0.66,2.67-2.12c0.25-1.36,0.51-2.73,0.76-4.1
					c0.67-1.48,2.2-2.22,4.57-2.22c0.92,0,2.35,0.6,4.28,1.8c1.93,1.21,3.31,1.8,4.14,1.77c0.49-0.02,0.73-0.31,0.73-0.87
					c0-0.28-0.09-0.81-0.28-1.6c-0.19-0.79-0.28-1.34-0.28-1.67c0-0.81,0.39-1.21,1.18-1.21c0.85,0,2.03,1.3,3.51,3.91
					c1.49,2.6,2.72,3.9,3.69,3.9c0.79,0,1.18-0.49,1.18-1.46C417.34,26.48,417.26,26.02,417.1,25.51z M400.16,12.25
					c-2.06,0.39-3.67,0.39-4.85,0c-0.51-0.16-1.17-0.54-1.98-1.15c-0.71-0.53-1.2-0.8-1.45-0.8c-0.81,0-1.21,0.35-1.21,1.04
					c0,0.65,0.25,1.2,0.76,1.67c0.42,0.37,1.13,0.56,2.15,0.56C395.24,13.57,397.44,13.13,400.16,12.25z"/>
				<path class="st0" d="M498.1,67.37h-70.93V34.32h13.4l8.31-17.36l7.86,17.36h13.75v-5.55h-15.83l13.89-10.17h-8.73L470.5,8.33
					h-5.51l8.76-7.08l8.73,7.08h-5.51l10.67,10.27h-8.73l13.92,10.17h-15.86v5.55h21.13V67.37z M464.27,53.14l-15.38-34.75
					l-16.28,34.75h10.32V43c0-1.48,0.44-2.84,1.32-4.09c1.09-1.6,2.63-2.4,4.64-2.4c1.99,0,3.53,0.8,4.64,2.4
					c0.86,1.25,1.28,2.61,1.28,4.09v10.14H464.27z"/>
				<path class="st0" d="M569.03,67.37H498.1V34.32c0.76-0.02,1.52-0.09,2.29-0.21c1.82-0.28,3.53-0.75,5.13-1.42
					c1.73-0.74,3.48-2.03,5.26-3.85l7.79,1.77c1.52,0.67,3.18,1.91,4.95,3.71c1.2-0.02,2.34-0.09,3.43-0.21
					c2.59-0.28,4.68-0.75,6.27-1.42c1.75-0.74,3.51-2.03,5.26-3.85l7.79,1.77c1.55,0.67,3.2,1.91,4.95,3.71v-8.85h-6.82
					c-0.76,0-1.56-0.4-2.39-1.22c-0.83-0.81-1.25-1.68-1.25-2.6V10.58c0-1.9,0.73-2.85,2.18-2.85c1.5,0,2.25,0.95,2.25,2.85v8.85
					c0,1.48,0.94,2.22,2.81,2.22h3.22V4.2c0-1.92,0.74-2.88,2.22-2.88c1.45,0,2.18,0.96,2.18,2.88v21.76h1.49
					c1.43,0,2.15-0.74,2.15-2.22v-5.28c0-1.92,0.74-2.88,2.22-2.88c1.46,0,2.18,0.96,2.18,2.88v7.5c0,0.93-0.42,1.79-1.25,2.6
					c-0.83,0.81-1.63,1.22-2.39,1.22h-4.4v4.55h13.4V67.37z M526.81,13.22c0,2.89-1.06,5.36-3.17,7.41
					c-2.11,2.05-4.66,3.07-7.64,3.07c-2.98,0-5.53-1.02-7.64-3.07c-2.11-2.05-3.17-4.52-3.17-7.41c0-2.89,1.06-5.36,3.17-7.39
					c2.11-2.04,4.66-3.05,7.64-3.05c2.98,0,5.52,1.02,7.64,3.05C525.75,7.86,526.81,10.33,526.81,13.22z M512.75,35.33
					c0.05-0.25,0.07-0.51,0.07-0.76c0-1.41-0.53-2.77-1.59-4.06c0.28,0.9,0.42,1.82,0.42,2.74c0,0.83-0.14,1.56-0.42,2.19
					c-0.83,1.78-2.67,3.03-5.51,3.75c1.27-0.12,2.37-0.32,3.29-0.63C511.25,37.86,512.5,36.79,512.75,35.33z M540.46,35.33
					c0.05-0.25,0.07-0.51,0.07-0.76c0-1.41-0.53-2.77-1.59-4.06c0.28,0.9,0.42,1.82,0.42,2.74c0,0.83-0.14,1.56-0.42,2.19
					c-0.81,1.78-2.63,3.03-5.47,3.75c1.25-0.12,2.34-0.32,3.29-0.63C538.99,37.86,540.23,36.79,540.46,35.33z"/>
				<path class="st0" d="M639.96,67.37h-70.93V34.32h14.61c5.73-1.6,12.66-2.4,20.81-2.4c1.5,0,2.97,0.02,4.4,0.07
					c-0.67-7.27-1.9-13.7-3.71-19.3c-1.59,0.32-3.07,1.11-4.43,2.36c-2.21,2.08-3.66,5.19-4.33,9.34c-0.72-2.5-1.07-4.81-1.07-6.94
					c0-2.68,0.63-4.56,1.91-5.62c0.95-0.79,2.49-1.46,4.64-2.01c-0.85-0.07-1.81-0.12-2.88-0.14c-1.71-0.02-4.16,0.3-7.34,0.97
					c2.72-3.59,5.17-5.38,7.34-5.38c1.2,0,2.8,0.51,4.78,1.53c-0.21-0.79-0.52-1.7-0.93-2.74c-0.21-0.56-0.69-1.39-1.46-2.5
					c1.76-0.46,3.12-0.67,4.09-0.63c0.97,0.05,2.3,0.3,3.98,0.76c-0.46,0.37-1.07,1.08-1.84,2.12c-0.14,0.35-0.22,0.87-0.24,1.56
					c1.96-1.92,3.91-2.8,5.85-2.64c2.4,0.21,4.63,2.63,6.68,7.26c-2.79-2.5-5.02-3.68-6.68-3.54c-1.11,0.09-2.42,0.89-3.95,2.39
					c6.79-0.16,10.22,2.31,10.29,7.43c0.05,2.04-0.95,4.72-2.98,8.05c-0.09-1.78-0.29-3.34-0.59-4.69c-0.67-3.08-1.87-5.19-3.6-6.35
					c-0.85-0.58-2.32-0.95-4.4-1.11c0.53,1.39,1.04,2.87,1.52,4.44L607.37,17l0.07,0.56l2.25-0.45c0.42,1.32,0.8,2.64,1.14,3.96
					l-2.22,0.31l-0.03,0.59l2.39-0.21c0.35,1.32,0.67,2.64,0.97,3.96l-2.29,0.31l-0.03,0.59l2.39-0.17
					c0.21,1.02,0.49,2.43,0.83,4.24l-2.63,0.14l-0.03,0.59l2.77-0.04l0.14,0.87c1.08,0.09,2.15,0.2,3.19,0.31l1.7-1.49l-0.76,1.63
					c3.3,0.44,6.01,0.98,8.14,1.63h14.61V67.37z M633.27,40.68c0-1.64-1.51-3.15-4.54-4.51c-2.93-1.34-6.85-2.36-11.74-3.05l-1,2.12
					l2.7-0.9l-2.36,2.33c-1.04,0.69-2.67,1-4.88,0.9c-1.59-0.05-2.93-0.43-4.02-1.15l-1.32-3.44l3.01,2.25
					c-0.09-1.18-0.17-2.13-0.24-2.84c-1.46-0.07-2.93-0.1-4.43-0.1c-7.97,0-14.77,0.82-20.4,2.46c-5.63,1.64-8.45,3.62-8.45,5.94
					c0,2.31,2.82,4.29,8.45,5.92c5.63,1.63,12.43,2.45,20.4,2.45c7.94,0,14.73-0.82,20.36-2.45
					C630.46,44.96,633.27,42.99,633.27,40.68z M615.85,32.97c-0.9-0.12-1.81-0.21-2.73-0.28l0.1,0.8c0.07,0.46,0.13,1.02,0.17,1.67
					L615.85,32.97z"/>
			</g>
		</g>
	</g>
</g>
</svg>
